<?xml version="1.0" encoding="UTF-8"?>
<svg xmlns="http://www.w3.org/2000/svg" version="1.1" viewBox="0 0 36 36">
  <defs>
    <style>
      .cls-1 {
        fill: #3d6666;
      }
    </style>
  </defs>
  <!-- Generator: Adobe Illustrator 28.6.0, SVG Export Plug-In . SVG Version: 1.2.0 Build 709)  -->
  <g>
    <g id="layer_1">
      <g>
        <path class="cls-1" d="M11.1,33.9c-1.8,0-2.6-.6-3.1-2.3l-.5-1.7c-.4-1.2-.8-2.5-1.2-3.7-.1-.4-.2-.5-.6-.6-.7-.1-1.1-.7-1.2-1.5,0-.8.4-1.4,1.2-1.6.3,0,.4-.2.5-.5.6-1.9,1.2-3.8,1.8-5.8.5-1.4,1.3-2,2.8-2,2.4,0,4.8,0,7.2,0s4.8,0,7.2,0c1.5,0,2.3.6,2.8,2.1.6,1.9,1.2,3.8,1.8,5.7.1.4.2.5.5.6.7.1,1.2.7,1.2,1.6,0,.8-.5,1.4-1.2,1.6-.3,0-.4.2-.5.5-.6,1.9-1.2,3.8-1.8,5.8-.5,1.4-1.3,2-2.8,2.1-1,0-2,0-3,0h-11.1ZM8,27c.5,1.5,1,3,1.4,4.5.2.7.5.9,1.3.9h7.2s7.2,0,7.2,0c.8,0,1.1-.2,1.3-1,.6-1.7,1.1-3.4,1.7-5.2v-.4c.1,0,.2-.1.2-.2H7.6l.4,1.3ZM29.6,24.2c0,0,.1,0,.1,0,0,0,.2-.1.2-.2,0,0,0,0,0,0,0,0-.1,0-.2-.1,0,0,0,0-.1,0s-.3,0-.3,0H6.7s-.3,0-.3,0c0,0-.2,0-.2,0,0,0-.1.1-.1.2,0,0,0,.1.1.1,0,0,.1,0,.2,0h.3s22.6,0,22.6,0c0,0,.3,0,.3,0ZM10.2,22.4c.7,0,1.3,0,1.9,0,.2,0,.3,0,.5,0,1.2,0,1.7-.5,2-1.6,0-.4.7-.7,1.1-.7.2,0,.5,0,.7,0s.5,0,.8,0c.3,0,.5,0,.8,0,.4,0,.7,0,1.1,0,.2,0,.4,0,.6,0,1.4,0,2.2.7,2.4,2,0,.2.1.3.5.3.9,0,1.7,0,2.6,0h2.9c.1,0,.2,0,.3,0,0,0,0,0,0-.1l-.7-2.3c-.4-1.1-.7-2.3-1.1-3.4-.2-.6-.6-.9-1.2-.9-2.4,0-14.5,0-14.5,0-.8,0-1.1.2-1.3,1-.4,1.2-.8,2.5-1.2,3.7-.2.5-.3,1-.5,1.5l-.2.5c.4,0,.8,0,1.1,0,.5,0,1,0,1.5,0ZM20.5,22.4c-.2-.8-.3-.8-1.2-.8h-2.6c-.9,0-1,0-1.1.8h5Z"/>
        <path class="cls-1" d="M14.8,31.6c0,0-.1,0-.2,0,0,0,0,0-.1-.1-.2-.1-.4-.3-.4-.5,0-1,0-2.1,0-3.1,0-.2.2-.4.4-.5,0,0,0,0,.1-.1,0,0,.1,0,.2,0h0c0,0,.2,0,.2,0,0,0,0,0,.1.1.2.1.3.3.4.5,0,.4,0,.8,0,1.1,0,0,0,.5,0,.5v.4c0,.4,0,.7,0,1.1,0,.2-.2.4-.3.5,0,0,0,0-.1.1,0,0-.1,0-.2,0h0Z"/>
        <path class="cls-1" d="M18,31.6c0,0-.2,0-.2-.1,0,0,0,0-.1-.1-.2-.1-.3-.3-.3-.5,0-1.1,0-2.1,0-3.1,0-.2.2-.4.4-.6,0,0,.1,0,.2-.1,0,0,.1,0,.2,0h0c0,0,.2,0,.2.1,0,0,0,0,.1.1.1.1.3.3.3.5,0,.4,0,.8,0,1.2v.4c0,.1,0,.3,0,.4,0,.4,0,.7,0,1.1,0,.2-.2.4-.4.5,0,0-.1,0-.1.1,0,0-.1,0-.2,0h0Z"/>
        <path class="cls-1" d="M21.1,31.6c0,0-.2,0-.2-.1,0,0,0,0-.1-.1-.1-.1-.3-.3-.3-.5,0-.4,0-.8,0-1.1v-.4s0-.4,0-.4c0-.4,0-.7,0-1.1,0-.2.2-.4.3-.5,0,0,0,0,.1-.1,0,0,.1-.1.2-.1,0,0,0,0,0,0,0,0,.2,0,.2,0,0,0,0,0,.2.1.2.1.4.3.4.6,0,1,0,2.1,0,3.1,0,.2-.2.4-.4.6,0,0-.1,0-.2.1,0,0-.1,0-.2,0s0,0,0,0Z"/>
        <path class="cls-1" d="M11.6,31.6c0,0-.2,0-.2-.1,0,0,0-.1-.1-.2-.1-.1-.3-.3-.3-.6,0-.4,0-.8,0-1.1,0-.1,0-.3,0-.4,0-.1,0-.3,0-.4,0-.3,0-.7,0-1,0-.2.2-.4.4-.6,0,0,.1-.1.1-.2,0,0,.1-.1.2-.1h0c0,0,.2,0,.2.1,0,0,0,.1.1.2.2.2.3.3.3.6,0,1,0,2,0,3,0,.2-.2.4-.4.6,0,0-.1,0-.1.1,0,0-.1,0-.2,0h0Z"/>
        <path class="cls-1" d="M24.3,31.6c0,0-.2,0-.2-.1,0,0,0,0-.1-.1-.1-.1-.3-.3-.3-.5,0-1,0-2,0-3.1,0-.2.2-.4.3-.5,0,0,0,0,.1-.1,0,0,.1-.1.2-.1,0,0,0,0,0,0,0,0,.1,0,.2,0,0,0,.1,0,.2.1.2.1.4.3.4.5,0,.4,0,.8,0,1.1,0,.1,0,.3,0,.4s0,.3,0,.4c0,.4,0,.8,0,1.1,0,.2-.2.4-.4.5,0,0-.1,0-.2.1,0,0-.1,0-.2,0h0Z"/>
      </g>
      <path class="cls-1" d="M21.6,12c-.6.2-1.6.5-2.7.5s-2.5-.4-3.3-1.1c-.7-.7-1.2-1.8-1.1-2.9,0-2.7,2-4.2,4.6-4.2s1.8.2,2.2.4l-.4,1.5c-.4-.2-1-.3-1.9-.3-1.5,0-2.7.9-2.7,2.6s1,2.7,2.5,2.7.8,0,.9-.1v-1.7h-1.2v-1.4h3v4.3Z"/>
    </g>
  </g>
</svg>