<?xml version="1.0" encoding="UTF-8"?>
<svg xmlns="http://www.w3.org/2000/svg" version="1.1" viewBox="0 0 36 36">
  <defs>
    <style>
      .cls-1 {
        fill: #3d6666;
      }
    </style>
  </defs>
  <!-- Generator: Adobe Illustrator 28.6.0, SVG Export Plug-In . SVG Version: 1.2.0 Build 709)  -->
  <g>
    <g id="layer_1">
      <path class="cls-1" d="M16,8.6c.3.3.3.9,0,1.2-.2.2-.4.3-.6.3s-.4,0-.6-.3l-4.4-4.4c-.3-.3-.3-.9,0-1.2s.9-.3,1.2,0l4.4,4.4ZM20,18.8c1-1.4,1.4-2.7,1.5-3.9,1.2,1.5,1.2,3.2,0,5.2l-1.4-1.4ZM24,25.3l1.4,1.4c-2,1.3-3.7,1.3-5.2,0,1.1,0,2.4-.5,3.9-1.5ZM22.6,21.4c1-1.4,1.4-2.7,1.5-3.9,1.2,1.5,1.2,3.2,0,5.2l-1.4-1.4ZM25.3,24c1-1.4,1.4-2.7,1.5-3.9,1.2,1.5,1.2,3.2,0,5.2l-1.4-1.4ZM18.8,20l1.4,1.4c-2,1.3-3.7,1.3-5.2,0,1.1,0,2.4-.5,3.9-1.5ZM22.8,24c-2,1.3-3.7,1.3-5.2,0,1.1,0,2.4-.5,3.9-1.5l1.4,1.4ZM18.8,17.4c-.8-1.3-1.2-3.3,0-5.1,1.2,1.5,1.1,3.1,0,5.1ZM16.2,16.2c-2.3-.1-3.3-.8-3.5-3.4,2.6.2,3.3,1.1,3.5,3.4ZM17.4,18.8c-2,1.2-3.6,1.2-5.1,0,1.1-.7,2.1-.8,2.9-.8.8,0,1.5.3,2.2.7ZM15.4,23.8c-.1.3,0,.7.2,1,.7.7,1.5,1.3,2.5,1.7-.1.3,0,.7.2,1,1,1.1,2.4,2,4.3,2s2.6-.4,4.1-1.5l3.8,3.8c.2.2.4.3.6.3s.5,0,.6-.3c.3-.3.3-.9,0-1.2l-3.8-3.8c2.7-3.9,1.2-6.7-.5-8.4-.3-.3-.6-.3-1-.2-.4-1-1-1.8-1.7-2.4-.3-.3-.6-.3-1-.2-.4-1-1-1.8-1.7-2.4-.3-.3-.6-.3-1-.2-.4-1-1-1.8-1.7-2.4-.3-.3-.9-.3-1.2,0-.7.7-1.2,1.4-1.5,2.2-.9-1-2.4-1.6-4.9-1.6s-.9.4-.9.9c0,2.5.6,4,1.6,4.9-.7.3-1.5.7-2.2,1.5-.3.3-.3.9,0,1.2.6.7,1.5,1.3,2.4,1.7-.1.3,0,.7.2,1,.7.7,1.5,1.3,2.5,1.7ZM5.5,4.3c-.3-.3-.9-.3-1.2,0-.3.3-.3.9,0,1.2l4.4,4.4c.2.2.4.3.6.3s.5,0,.6-.3c.3-.3.3-.9,0-1.2l-4.4-4.4ZM5.5,10.4c-.3-.3-.9-.3-1.2,0-.3.3-.3.9,0,1.2l4.4,4.4c.2.2.4.3.6.3s.5,0,.6-.3c.3-.3.3-.9,0-1.2l-4.4-4.4Z"/>
    </g>
  </g>
</svg>