<?xml version="1.0" encoding="UTF-8"?>
<svg xmlns="http://www.w3.org/2000/svg" version="1.1" viewBox="0 0 36 36">
  <defs>
    <style>
      .cls-1 {
        fill: none;
        stroke: #3d6666;
        stroke-linecap: round;
        stroke-linejoin: round;
        stroke-width: 1.2px;
      }
    </style>
  </defs>
  <!-- Generator: Adobe Illustrator 28.7.1, SVG Export Plug-In . SVG Version: 1.2.0 Build 142)  -->
  <g>
    <g id="layer_1">
      <g>
        <path class="cls-1" d="M5.8,22.4c0-1.2,0-2.4,0-3.6h24.4c0,1.1,0,2.1,0,3.1,0,2.3-1.2,4-3.3,5-.5.2-1,.3-1.5.5,0,.6,0,1.3,0,2,0,.6-.3.9-.9.9-4.3,0-8.7,0-13,0-.7,0-.9-.2-.9-.9,0-.7,0-1.3,0-2,0,0-.2,0-.2,0-2.3-.5-3.7-1.8-4.4-4.1,0-.3-.1-.5-.2-.8Z"/>
        <path class="cls-1" d="M14.9,5.8c.3,0,.5.1.8.2,1.1.4,1.8,1.1,2.2,2.2,0,.2.1.2.3.3.8.2,1.5.6,2,1.3-.2.3-.5.5-.7.8-.7.8-1.1,1.7-1.5,2.7-.6,1.3-1,2.7-1.3,4.1h-1.8c0,0,0-.1.1-.2.6-.9.9-2,1-3,0-1.3-1.1-2.4-2.5-2.2-1.2.2-2.3.6-3.3,1.4-.6-.5-1.3-.9-2-1.1,0,0-.1-.1,0-.2,0-1.1.5-2,1.4-2.8.4-.3.9-.6,1.4-.7,0,0,.2-.1.2-.2.5-1.4,1.5-2.2,2.9-2.5,0,0,0,0,0,0,.3,0,.6,0,.9,0Z"/>
        <path class="cls-1" d="M5.8,13.9c.3-.5.5-.6,1-.5.6.1,1.3.3,1.8.6.6.4,1.1.9,1.4,1.6,0,0,0,.2.1.3,0,0,0,0,0,0,.5-1.3,1.6-2,2.9-2.3.2,0,.5,0,.7,0,.4,0,.7.3.7.7,0,1-.4,1.9-1,2.6,0,0,0,0-.1.1-.3.4-.7.6-1.2.5-1.5,0-3,0-4.4,0-.1,0-.3,0-.4-.1-.9-.6-1.3-1.5-1.5-2.5,0-.2,0-.3,0-.5,0-.1,0-.3,0-.4Z"/>
        <path class="cls-1" d="M24.7,5.8c.5.2,1,.5,1.2,1,1.3-.6,2.4.2,2.5,1.4,0,0,.2,0,.2,0,.8,0,1.4.5,1.6,1.2.2.7-.2,1.5-.9,1.8-.4.2-.7.3-1.1.4-1.3-1.7-3-2.7-5.2-3,0-.4-.2-.9-.2-1.3,0-.7.4-1.3,1.1-1.5,0,0,.2,0,.2,0,.2,0,.4,0,.6,0Z"/>
        <path class="cls-1" d="M26.7,16c-.3.4-.6.9-.9,1.3,0,0-.2,0-.3,0-2.2,0-4.3,0-6.5,0h-1c.3-1,.6-2,1-3.1.5.3,1,.6,1.4.8.2,0,.4.1.6.1.3,0,.5-.3.6-.6,0-.3,0-.6-.4-.7-.5-.3-.9-.5-1.4-.8,0,0-.1,0-.2-.1.5-1,1-1.9,2-2.5.6-.4,1.4-.4,2.1-.2,1.1.3,2,.9,2.8,1.6.7.7.9,1.6.7,2.6-.4-.2-.7-.4-1.1-.6-.1,0-.3-.2-.4-.2-.4-.2-.8,0-1,.3-.2.3-.1.8.2,1,.5.3,1,.6,1.4.8,0,0,.1,0,.2.1Z"/>
        <path class="cls-1" d="M27.5,17.3c.3-.5.5-1,.8-1.5.2-.5.4-1.1.4-1.7,0,0,0-.2.1-.2.1,0,.2-.1.4-.2.3,0,.5,0,.7.1.2.2.3.4.2.7-.3.9-.7,1.9-1.1,2.8h-1.5Z"/>
      </g>
    </g>
  </g>
</svg>