<?xml version="1.0" encoding="UTF-8"?>
<svg xmlns="http://www.w3.org/2000/svg" version="1.1" viewBox="0 0 36 36">
  <defs>
    <style>
      .cls-1 {
        fill: #3d6666;
      }
    </style>
  </defs>
  <!-- Generator: Adobe Illustrator 28.7.1, SVG Export Plug-In . SVG Version: 1.2.0 Build 142)  -->
  <g>
    <g id="layer_1">
      <path class="cls-1" d="M31.5,16.4c-.2.3-.6.5-.9.3-.2,0-.3-.2-.3-.4s0-.3,0-.5l2.2-4.2c.2-.3.6-.5.9-.3s.5.6.3.9l-2.2,4.2ZM25,21.7c1.3.4,2.3.4,3.2.2-.8,1.2-2.1,1.6-3.8,1.1l.7-1.3ZM21.2,26.1l-.7,1.3c-1.4-1.2-1.8-2.4-1.3-3.8.3.8.9,1.7,1.9,2.5ZM23.7,24.2c1.3.4,2.3.4,3.2.2-.8,1.3-2.1,1.6-3.8,1.1l.7-1.3ZM22.4,26.7c1.3.4,2.3.4,3.2.2-.8,1.3-2.1,1.6-3.8,1.1l.7-1.3ZM23.8,21l-.7,1.3c-1.4-1.2-1.8-2.4-1.3-3.8.3.8.9,1.7,1.9,2.5ZM21.8,24.9c-1.4-1.2-1.8-2.4-1.3-3.8.3.8.9,1.7,1.9,2.5l-.7,1.3ZM25.8,20.5c.8-.9,2.2-1.6,3.7-1.1-.8,1.2-2,1.5-3.7,1.1ZM26,18.3c-.4-1.7-.1-2.6,1.7-3.3.5,1.9,0,2.7-1.7,3.3ZM24.4,19.8c-1.3-1.1-1.7-2.3-1.2-3.7.8.6,1.1,1.3,1.2,1.9.1.6.1,1.2,0,1.8ZM20.3,19.5c-.3,0-.5.1-.7.3-.3.6-.6,1.4-.7,2.2-.3,0-.5.1-.7.3-.5,1-.9,2.2-.5,3.6s.9,1.8,2,2.7l-1.9,3.7c0,.2-.1.3,0,.5s.2.3.3.4c.3.2.7,0,.9-.3l1.9-3.7c3.5,1,5.2-.6,6-2.3.1-.2,0-.5,0-.7.6-.5,1.1-1.1,1.4-1.8.1-.2,0-.5,0-.7.6-.5,1.1-1.1,1.4-1.8.1-.2,0-.5,0-.7.6-.5,1.1-1.1,1.4-1.8.2-.3,0-.7-.3-.9-.7-.3-1.3-.5-2-.6.5-.9.6-2.1,0-3.9s-.5-.5-.8-.4c-1.8.6-2.8,1.3-3.2,2.3-.4-.5-.9-.9-1.6-1.3-.3-.2-.7,0-.9.3-.3.6-.6,1.4-.7,2.2-.3,0-.5.1-.7.3-.3.6-.6,1.4-.7,2.2ZM32.3,7.8c.2-.3,0-.7-.3-.9-.3-.2-.7,0-.9.3l-2.2,4.2c0,.2-.1.3,0,.5s.2.3.3.4c.3.2.7,0,.9-.3l2.2-4.2ZM27.8,9.2c.2-.3,0-.7-.3-.9-.3-.2-.7,0-.9.3l-2.2,4.2c0,.2-.1.3,0,.5s.2.3.3.4c.3.2.7,0,.9-.3l2.2-4.2Z"/>
      <path class="cls-1" d="M17.7,14.1c1.4,1.4,1.4,3.6,0,5-1.9,1.9-4.1,2.9-6.3,2.9s-4.4-1-6.3-2.9c-1-1-1.3-2.6-.8-3.9-1.2-1.5-1.8-3.5-1.8-5.8s1.6-3.6,3.6-3.6,1.3.2,1.8.5c.5.3,1,.8,1.3,1.3,0,0,.1.2.1.3,0,.1.1.3.2.5.5,2,2.4,2.7,3.5,3.2h.2c0,0,0,0,0,.1.6.3,1,.8,1.3,1.4,1.1-.1,2.2.2,3,1ZM17,18.4c1-1,1-2.6,0-3.6-.6-.6-1.6-.9-2.4-.7h-.2c0,.1-.2.1-.3.2.2.7,0,1.4-.6,1.9-.5.5-1.2.7-2,.7s-.8,0-1.2-.3c-.8-.4-1.2-1.2-1.2-2.2,0,0-.2,0-.3-.1-.1,0-.2-.1-.4-.2,0,0-.2,0-.2,0-.2,0-.4,0-.7,0-.7,0-1.3.3-1.8.7-1,1-1,2.6,0,3.6,3.4,3.4,7.7,3.4,11.1,0ZM12.8,15.5c.2-.2.3-.5.3-.8-.9.3-1.9.4-3,.2,0,.4.3.8.7.9.6.3,1.5.2,2-.3ZM13.7,13.4c-.2-.3-.5-.6-.8-.8h-.2c-.1-.1-.3-.2-.5-.3-.3.7-.9,1-1.7,1h0c-1.2,0-2.4-.9-2.8-2-.3-.9,0-1.8.9-2.6,0,0,0,0,0-.1,0-.1,0-.3-.1-.4,0,0,0-.2,0-.2-.5-.8-1.3-1.3-2.2-1.3-1.4,0-2.6,1.2-2.6,2.6s.5,3.6,1.4,4.9c0,0,.1-.1.2-.2,0,0,.1-.1.2-.2-.8-1.2-1.2-2.7-1.2-4.5s.2-.5.5-.5.5.2.5.5c0,1.6.4,2.9,1,4,.5-.2,1-.3,1.5-.3s.6,0,.9.1c0,0,.2,0,.3.1.1,0,.3.1.5.2,1.6.9,3.3.3,4.4,0ZM10.5,12.4c.4,0,.6-.2.8-.5-.8-.4-1.7-1.1-2.2-2.1-.3.3-.5.8-.4,1.3.2.7,1.1,1.3,1.8,1.3ZM15.9,15.2c-.2.2-.2.5,0,.7.2.2.3.5.3.7s-.1.5-.3.7c-2.9,2.9-6.2,2.9-9,0-.2-.2-.5-.2-.7,0-.2.2-.2.5,0,.7,1.6,1.6,3.4,2.4,5.2,2.4s3.6-.8,5.2-2.4c.4-.4.6-.9.6-1.5s-.2-1.1-.6-1.5c-.2-.2-.5-.2-.7,0Z"/>
    </g>
  </g>
</svg>