<?xml version="1.0" encoding="UTF-8"?>
<svg xmlns="http://www.w3.org/2000/svg" version="1.1" viewBox="0 0 36 36">
  <defs>
    <style>
      .cls-1 {
        fill: #3d6666;
      }
    </style>
  </defs>
  <!-- Generator: Adobe Illustrator 28.6.0, SVG Export Plug-In . SVG Version: 1.2.0 Build 709)  -->
  <g>
    <g id="layer_1">
      <g>
        <path class="cls-1" d="M12.1,32.5c-1.5,0-2.2-.5-2.7-2l-.5-1.5c-.3-1-.7-2.1-1-3.1-.1-.3-.2-.5-.5-.5-.6-.1-1-.6-1-1.3,0-.7.4-1.2,1-1.4.3,0,.4-.2.5-.5.5-1.6,1-3.3,1.6-4.9.4-1.2,1.1-1.7,2.3-1.7,2,0,4.1,0,6.1,0h6.1c1.3,0,2,.5,2.4,1.8.5,1.6,1,3.2,1.6,4.8.1.3.2.4.4.5.6.1,1,.6,1,1.3,0,.7-.4,1.2-1,1.3-.3,0-.3.1-.4.4-.5,1.6-1,3.3-1.6,4.9-.4,1.2-1.1,1.7-2.4,1.8-.8,0-1.7,0-2.5,0h-9.5ZM9.6,26.7c.4,1.2.8,2.5,1.2,3.7.2.6.4.8,1.1.8h6.3s6,0,6,0c.7,0,.9-.2,1.1-.8.5-1.5,1-3.1,1.5-4.7,0,0,0-.2,0-.2H9.2l.4,1.2ZM27.9,24.2c0,0,0,0,.1,0,0,0,.2-.1.2-.2,0,0,0,0,0,0,0,0-.1,0-.2-.1,0,0,0,0-.1,0,0,0-.2,0-.3,0H8.4s-.3,0-.3,0c0,0-.1,0-.2,0,0,0,0,0-.1.1,0,0,0,0,.1.1,0,0,0,0,.2,0h.3s19.3,0,19.3,0h.3ZM11.3,22.6c.6,0,1.1,0,1.6,0,.2,0,.3,0,.4,0,1,0,1.5-.4,1.7-1.3,0-.3.6-.6.9-.6.2,0,.4,0,.6,0s.4,0,.7,0c.2,0,.4,0,.7,0,.3,0,.6,0,.9,0,.2,0,.4,0,.5,0,1.2,0,1.8.6,2.1,1.7,0,.2.1.3.5.3.8,0,1.5,0,2.2,0h2.5c0,0,.2,0,.3,0,0,0,0,0,0-.1l-.6-1.8c-.3-1-.7-2-1-3-.2-.5-.5-.8-1.1-.8h-12.4c-.7,0-.9.2-1.1.8-.3,1.1-.7,2.1-1,3.2-.1.4-.5,1.7-.5,1.7.3,0,.6,0,1,0,.4,0,.8,0,1.2,0ZM20.1,22.6c-.2-.7-.3-.7-1.1-.7h-2.2c-.7,0-.9,0-1,.7h4.2Z"/>
        <path class="cls-1" d="M15.3,30.5c0,0-.1,0-.2,0,0,0,0,0-.1-.1-.1-.1-.3-.2-.3-.5,0-.9,0-1.8,0-2.7,0-.2.2-.3.3-.5,0,0,0,0,.1-.1,0,0,.1,0,.2,0h0c0,0,.1,0,.2,0,0,0,0,0,.1.1.1.1.3.3.3.5,0,.3,0,.6,0,1v.4s0,.4,0,.4c0,.3,0,.6,0,.9,0,.2-.2.3-.3.4,0,0,0,0-.1.1,0,0-.1,0-.2,0h0Z"/>
        <path class="cls-1" d="M18,30.5c0,0-.1,0-.2,0,0,0,0,0-.1-.1-.1-.1-.3-.3-.3-.5,0-.9,0-1.8,0-2.6,0-.2.2-.4.3-.5,0,0,0,0,.1-.1,0,0,.1,0,.2,0h0c0,0,.1,0,.2,0,0,0,0,0,.1.1.1.1.3.3.3.4,0,.3,0,.7,0,1v.4s0,.4,0,.4c0,.3,0,.6,0,.9,0,.2-.2.3-.3.5,0,0,0,0-.1.1,0,0-.1,0-.2,0h0Z"/>
        <path class="cls-1" d="M20.7,30.5c0,0-.1,0-.2,0,0,0,0,0-.1-.1-.1-.1-.2-.3-.3-.4,0-.3,0-.6,0-1v-.4s0-.4,0-.4c0-.3,0-.6,0-1,0-.2.2-.3.3-.4,0,0,0,0,.1-.1,0,0,.1,0,.2,0h0c0,0,.1,0,.2,0,0,0,0,0,.1.1.2.1.3.3.3.5,0,.9,0,1.8,0,2.6,0,.2-.2.4-.3.5,0,0,0,0-.1.1,0,0-.1,0-.2,0s0,0,0,0Z"/>
        <path class="cls-1" d="M12.5,30.5c0,0-.1,0-.2,0,0,0,0,0-.1-.1-.1-.1-.3-.3-.3-.5,0-.3,0-.6,0-1v-.4c0-.1,0-.2,0-.3,0-.3,0-.6,0-.9,0-.2.2-.4.3-.5,0,0,0,0,.1-.1,0,0,.1,0,.2,0h0c0,0,.1,0,.2,0,0,0,0,0,.1.1.1.1.3.3.3.5,0,.9,0,1.7,0,2.6,0,.2-.2.4-.3.5,0,0,0,0-.1.1,0,0-.1,0-.2,0h0Z"/>
        <path class="cls-1" d="M23.4,30.5c0,0-.1,0-.2,0,0,0,0,0-.1-.1-.1-.1-.3-.3-.3-.5,0-.9,0-1.7,0-2.6,0-.2.1-.3.3-.5,0,0,0,0,.1-.1,0,0,.1,0,.2,0,0,0,0,0,0,0,0,0,.1,0,.2,0,0,0,0,0,.1.1.1.1.3.3.3.5,0,.3,0,.6,0,1v.4s0,.4,0,.4c0,.3,0,.6,0,1,0,.2-.2.3-.3.5,0,0,0,0-.1.1,0,0-.1,0-.2,0h0Z"/>
      </g>
      <path class="cls-1" d="M15.1,5.8c.6,0,1.4-.2,2.5-.2s1.9.2,2.5.6c.5.4.9,1.1.9,1.9s-.3,1.5-.7,1.9c-.6.6-1.5.9-2.6.9s-.5,0-.6,0v2.9h-1.8v-8ZM16.9,9.4c.2,0,.3,0,.6,0,1,0,1.6-.5,1.6-1.3s-.5-1.2-1.4-1.2-.6,0-.8,0v2.4Z"/>
    </g>
  </g>
</svg>