<?xml version="1.0" encoding="UTF-8"?>
<svg xmlns="http://www.w3.org/2000/svg" version="1.1" viewBox="0 0 36 36">
  <defs>
    <style>
      .cls-1 {
        fill: #3d6666;
      }
    </style>
  </defs>
  <!-- Generator: Adobe Illustrator 28.6.0, SVG Export Plug-In . SVG Version: 1.2.0 Build 709)  -->
  <g>
    <g id="layer_1">
      <g>
        <path class="cls-1" d="M28.8,34c-.1,0-.3,0-.5,0-.3,0-.7-.3-1-.5-.9-.9-2.1-1.5-3.3-1.8l-4.7-1.1c-.3,0-.5-.3-.6-.6,0-.3,0-.6.3-.8h0c-.3-.3-.4-.6-.3-.9,0-.3.3-.6.7-.6h.5c0,0-.4-.3-.4-.3-.3-.2-.4-.5-.3-.8,0-.3.3-.6.7-.6h0c-.1-.4-.1-.7,0-1,.2-.2.5-.4.8-.3l4.7,1.1c1.2.3,2.5.3,3.7,0,.4-.1.7-.1,1.1,0,.3,0,.5.2.7.3.6.4.9,1,.9,1.6,0,.7-.2,1.3-.7,1.7l-.6.5c-.2.1-.2.4-.1.6l.3.7c.2.4.2.9.1,1.3-.2.8-.9,1.5-1.8,1.6,0,0-.2,0-.3,0ZM21.4,29.4l3.1.7c1.5.4,2.9,1.1,4,2.2,0,0,.2.1.2.1,0,0,0,0,.2,0,.2,0,.4-.2.4-.4,0-.1,0-.2,0-.3l-.3-.7c-.4-.9-.1-1.8.6-2.4l.6-.5c.2-.1.2-.3.2-.4,0-.2,0-.3-.2-.4,0,0-.1,0-.2,0,0,0,0,0,0,0,0,0-.2,0-.3,0-1.5.4-3,.5-4.5,0l-3.1-.7c0,.1,0,.2,0,.3,0,0,0,0,0,0l.8.5c.3.2.4.5.3.8,0,.3-.3.6-.7.6h-1c0,.1,0,.1,0,.2,0,.1,0,.2,0,.3Z"/>
        <path class="cls-1" d="M14.3,33.5c-1.5,0-2.9-.2-4.1-.5-4.9-1.2-7-4.5-5.8-9.2.5-2.2,1.5-3.8,3-4.8,1.7-1.1,3.8-1.4,6.4-.8,3.9.9,8.8,4,10.3,7.4.1.3,0,.6-.1.8-.2.2-.5.3-.8.3l-1-.2c0,.1,0,.2,0,.3,0,0,0,0,0,0l.8.5c.3.2.4.5.3.8,0,.3-.3.6-.7.6h-1c0,.1,0,.1,0,.2,0,.1,0,.2,0,.3l1.1.3c.3,0,.5.3.6.6,0,.3,0,.6-.3.8-2,1.7-5.4,2.5-8.6,2.5ZM11.1,19.5c-1.2,0-2.1.3-2.9.8-1.1.8-1.9,2.1-2.3,3.9-.9,3.9.6,6.3,4.7,7.3,3.3.8,7.3.4,9.8-.8l-.9-.2c-.3,0-.5-.3-.6-.6,0-.3,0-.6.3-.8h0c-.3-.3-.4-.6-.3-.9,0-.3.3-.6.7-.6h.5c0,0-.4-.3-.4-.3-.3-.2-.4-.5-.3-.8,0-.3.3-.6.7-.6h0c-.1-.4-.1-.7,0-1,.2-.2.5-.4.8-.3l.7.2c-1.8-2.2-5.1-4.2-8.3-5h0c-.8-.2-1.6-.3-2.2-.3Z"/>
      </g>
      <g>
        <path class="cls-1" d="M13.9,17c-.1,0-.2,0-.4,0-.4-.1-.6-.5-.5-.9l.7-2.3c.3-1.1,0-2.4-.7-3.2-1.1-1.2-1.5-2.9-1.1-4.5l.4-1.7c.1-.4.5-.6.9-.5.4.1.6.5.5.9l-.4,1.7c-.3,1.1,0,2.3.8,3.1,1.2,1.3,1.6,3.1,1.1,4.7l-.7,2.3c0,.3-.3.5-.6.5Z"/>
        <path class="cls-1" d="M18.3,17c-.1,0-.2,0-.4,0-.4-.1-.6-.5-.5-.9l.7-2.3c.3-1.1,0-2.4-.7-3.2-1.1-1.2-1.5-2.9-1.1-4.5l.4-1.7c.1-.4.5-.6.9-.5.4.1.6.5.5.9l-.4,1.7c-.3,1.1,0,2.3.8,3.1,1.2,1.3,1.6,3.1,1.1,4.7l-.7,2.3c0,.3-.3.5-.6.5Z"/>
        <path class="cls-1" d="M22.8,17c-.1,0-.2,0-.4,0-.4-.1-.6-.5-.5-.9l.7-2.3c.3-1.1,0-2.4-.7-3.2-1.1-1.2-1.5-2.9-1.1-4.5l.4-1.7c.1-.4.5-.6.9-.5.4.1.6.5.5.9l-.4,1.7c-.3,1.1,0,2.3.8,3.1,1.2,1.3,1.6,3.1,1.1,4.7l-.7,2.3c0,.3-.3.5-.6.5Z"/>
      </g>
    </g>
  </g>
</svg>