<?xml version="1.0" encoding="UTF-8"?>
<svg xmlns="http://www.w3.org/2000/svg" version="1.1" viewBox="0 0 36 36">
  <defs>
    <style>
      .cls-1 {
        fill: #3d6666;
      }
    </style>
  </defs>
  <!-- Generator: Adobe Illustrator 28.6.0, SVG Export Plug-In . SVG Version: 1.2.0 Build 709)  -->
  <g>
    <g id="layer_1">
      <path class="cls-1" d="M9.4,14.7c0,.4-.1.9-.4,1.2-.7.7-1.1,1.7-1.1,2.5,0,1.9,1.7,3.2,3.3,3.5.4,0,.8.3,1,.6.2.3.4.8.3,1.2,0,.3-.1.6-.2.8,0,0,0,0,0,.1,0,2.4,2,4.3,4.5,4.3s2.6-1.2,3.3-1.8c.3-.3.6-.5,1-.5,0,0,.1,0,.2,0,.3,0,.7.1.9.3.3.2.6.3.7.3.9,0,1.7-.2,2.3-.7-.9-1.2-2-2.5-3.1-3.8l-5.3,1.5c0,0-.1,0-.2,0-.3,0-.6-.2-.7-.6-.1-.4.1-.8.5-1l4.6-1.3c-.8-.9-1.6-1.8-2.4-2.6,0,0,0,0,0,0h-5.9c-.4,0-.8-.4-.8-.8s.4-.8.8-.8h4.5c-1.5-1.6-3-3-4.2-4.1,0,0,0,0,0,0-1.2-1.1-2.2-1.8-2.9-2.2-.4-.2-.5-.7-.3-1,.2-.4.7-.5,1-.4.5.3,1.2.7,2,1.4v-.7c0-.4.4-.8.8-.8s.8.4.8.8v2c.8.7,1.6,1.5,2.5,2.4l.6-3.7c0-.4.5-.7.9-.6.4,0,.7.5.6.9l-.8,4.8c1.2,1.2,2.4,2.6,3.6,3.9l2.7-5.4c.2-.4.7-.5,1-.4.4.2.5.7.4,1l-3,5.9c1.3,1.5,2.4,2.9,3.5,4.3.6-.8,1-1.7,1-2.7s-.3-1.4-.5-1.8c-.3-.6,0-1.3.4-1.8.8-.7,1.8-1.8,1.8-3.3,0-2.5-2-4.5-4.5-4.5s-.7,0-1.2.3h0c-.2,0-.3.1-.5.1-.2,0-.5,0-.7-.2-.4-.2-.7-.5-.8-1-.4-1.5-2-2.7-3.6-2.7s-1.3,0-1.8.4c-.3.2-.6.3-.9.3s-.7-.1-.9-.3c0,0-.2-.1-.3-.2-.5-.6-1.7-1-3-1-2,0-3.6,1.6-3.6,3.6s.6,2.2,1.7,2.9c.4.3.6.7.7,1.1ZM16.7,30.5c-3.3,0-6-2.7-6-6s.2-.7.3-1c-2.5-.4-4.6-2.4-4.6-5s.6-2.6,1.5-3.5c-1.3-.9-2.3-2.4-2.3-4.2,0-2.9,2.3-5.2,5.2-5.2s3.2.5,4.2,1.6c.8-.6,1.6-.7,2.7-.7,2.4,0,4.5,1.7,5.1,3.8.6-.2,1.1-.4,1.8-.4,3.3,0,6,2.7,6,6s-1,3.4-2.3,4.5c.3.7.6,1.6.6,2.4,0,1.6-.6,3-1.6,4,.6.9,1.2,1.8,1.6,2.5.2.4,0,.8-.3,1.1-.1,0-.3.1-.4.1-.3,0-.5-.1-.7-.4-.4-.7-.9-1.5-1.5-2.3-.9.6-2,1-3.2,1s-1.2-.3-1.6-.6c-1.1,1.2-2.7,2.3-4.4,2.3ZM22.7,24.8c.4,0,.8.4.8.8s-.4.8-.8.8-.6,0-1-.1c-.3,0-.5,0-.8,0-.6,0-1.1.3-1.5.7-.7.8-1.7,1.2-2.7,1.2-2,0-3.7-1.7-3.7-3.7s0-.3,0-.6c0-.6,0-1.2-.4-1.7-.4-.5-.9-.8-1.5-.9-1.4-.2-2.4-1.4-2.4-2.8s.4-1.5.8-1.9c.5-.5.7-1.2.6-1.8,0-.7-.4-1.3-1-1.7-.4-.2-.4-.7-.2-1.1.1-.2.4-.3.6-.3s.3,0,.4.1c.9.6,1.5,1.7,1.7,2.8s-.2,2.2-1,3.1c-.2.2-.3.5-.3.8,0,.6.5,1.1,1.1,1.2,1,.2,1.9.7,2.6,1.6.6.8.9,1.9.7,2.9,0,.1,0,.2,0,.3,0,1.2,1,2.1,2.1,2.1s1.1-.2,1.6-.7c1-1.1,2.5-1.5,3.9-1.1.2,0,.4,0,.6,0Z"/>
    </g>
  </g>
</svg>