<?xml version="1.0" encoding="UTF-8"?>
<svg xmlns="http://www.w3.org/2000/svg" version="1.1" viewBox="0 0 36 36">
  <defs>
    <style>
      .cls-1 {
        fill: none;
        stroke: #3d6666;
        stroke-linecap: round;
        stroke-linejoin: round;
      }
    </style>
  </defs>
  <!-- Generator: Adobe Illustrator 28.7.1, SVG Export Plug-In . SVG Version: 1.2.0 Build 142)  -->
  <g>
    <g id="layer_1">
      <g>
        <path class="cls-1" d="M32.6,15.6c0,1.7,0,3.4,0,5.1,0,2.5-2,4.5-4.5,4.6-2.3,0-4.4-1.7-4.6-3.9,0-.6,0-1.2,0-1.9,0-1.1-.2-1.5-1.2-1.9-2-.9-3.5-2.4-4.2-4.5-1.5-4.4,1.4-9.1,6-9.7,4.1-.6,7.8,2.3,8.4,6.3,0,.4,0,.8,0,1.1,0,1.6,0,3.2,0,4.8ZM30.7,15.6c0-1.6,0-3.3,0-4.9,0-3.3-2.8-5.8-6-5.5-4,.3-6.4,4.8-4.4,8.3.7,1.1,1.6,1.9,2.8,2.4,1.6.7,2.3,1.9,2.2,3.6,0,.4,0,.9,0,1.3,0,1.6,1.5,2.9,3.1,2.6,1.4-.2,2.3-1.3,2.3-2.7,0-1.7,0-3.4,0-5.1Z"/>
        <path class="cls-1" d="M15.5,29.4c-.6-.2-1.2-.3-1.7-.5-1-.3-1.9.1-2.1,1-.2.8-.2,1.7.1,2.5.1.3.4.5.6.8-.1,0-.3-.1-.4-.2-1.2-.7-2.5-1.4-3.7-2.2-.3-.2-.6-.2-.9,0-.8.4-1.6.9-2.5,1.3-.8.4-1.7.1-2.1-.6,0,0,0,0,0-.2.4,0,.7,0,1.1,0,.4,0,.6-.2.6-.5,0-.3-.2-.5-.6-.5-.4,0-.8,0-1.2,0v-.7c.5,0,.9,0,1.3,0,.6,0,1.2,0,1.8,0,.3,0,.5-.2.5-.5,0-.3-.2-.5-.5-.5-.9,0-1.8,0-2.6,0-.1,0-.3,0-.4,0v-.7c.4,0,.8,0,1.1,0,.4,0,.6-.2.6-.5,0-.3-.2-.5-.6-.5-.3,0-.6,0-.9,0,0,0,0,0,0,0,0-.6,1-1,1.6-.9.2,0,.5.2.7.3.8.4,1.5.9,2.3,1.3.3.2.6.2.8,0,1.4-.8,2.8-1.6,4.3-2.2,3.2-1.2,6.3-.9,9.3.5.6.3,1.1.6,1.7.9.3.2.4.4,0,.7-.5.5-1,1-1.5,1.5-.4.4-.4.6,0,.9.5.5.9,1,1.4,1.4.3.4.3.6-.1.8-.8.4-1.5.7-2.3,1.1-2,.8-3.8-.2-4.4-2.2-.3-.9-.2-1.7,0-2.6,0-.1,0-.2,0-.3,0-.3,0-.5-.3-.6-.2,0-.5,0-.6.3,0,.3-.2.7-.2,1.1,0,.1,0,.2,0,.4ZM19.3,27.5c0,.5.4.9.8.9.5,0,.9-.4.9-.9,0-.5-.4-.8-.9-.8-.5,0-.8.4-.8.9Z"/>
        <path class="cls-1" d="M9.9,20.5c-.8,0-1.5-.1-2.2-.6-1.2-.7-1.6-1.8-1.5-3.2.2-1.3,1-2.2,2.2-2.5,2.2-.6,4.1,0,5.7,1.7.8.9.8,1.8,0,2.7-1,1.1-2.8,1.9-4.3,1.9Z"/>
        <path class="cls-1" d="M10.5,13.2c-2.7-.2-4.3,1-5,2.8-.3-.3-.6-.5-.8-.8-.7-1-.8-2.1-.6-3.3.2-1.3.8-2.4,1.7-3.3,1-.9,2-1,3,0,1.2,1.2,1.8,2.6,1.7,4.3,0,0,0,.2,0,.3Z"/>
        <path class="cls-1" d="M14.3,14.9c-.2-.2-.4-.3-.7-.5-.6-.5-1.4-.8-2.1-1-.1,0-.2,0-.2-.2.1-1.6-.4-3.1-1.3-4.4,0,0,0,0,0,0,.9-1,1.9-1.1,2.9-.2,1.6,1.4,2.3,3.9,1.6,5.9,0,.2-.1.3-.2.5Z"/>
        <path class="cls-1" d="M18.9,23.9c-3.8-.7-7,.5-10.2,2.3,0-.1.1-.2.2-.3.5-.8,1.2-1.4,1.9-1.9,1.6-1.1,3.3-1.8,5.2-2.2,1-.2,1.7.2,2.3,1,.2.3.4.7.6,1.1Z"/>
        <path class="cls-1" d="M15.3,30.4c-.2,0-.5,0-.7,0-.3,0-.5.3-.5.6,0,.3.3.4.6.4.2,0,.5,0,.7,0-.3.1-.6.3-.9.4-.4.2-.7.3-1.1.5-.5.2-.9,0-.9-.6,0-.4,0-.9,0-1.3,0-.4.3-.7.7-.6.7.2,1.4.4,2.1.6h0Z"/>
        <path class="cls-1" d="M17.8,34.1c-1.7.2-3.4,0-5-.8.6.2,1.2,0,1.8-.3.5-.2,1.1-.4,1.5-.6.6.6,1.2,1.2,1.7,1.8Z"/>
        <path class="cls-1" d="M23.8,10.6c0-.7.5-1.2,1.2-1.2.7,0,1.2.5,1.2,1.2,0,.7-.5,1.2-1.2,1.2-.7,0-1.2-.5-1.2-1.2Z"/>
      </g>
    </g>
  </g>
</svg>