<?xml version="1.0" encoding="UTF-8"?>
<svg xmlns="http://www.w3.org/2000/svg" version="1.1" viewBox="0 0 36 36">
  <defs>
    <style>
      .cls-1 {
        fill: #3d6666;
      }
    </style>
  </defs>
  <!-- Generator: Adobe Illustrator 28.6.0, SVG Export Plug-In . SVG Version: 1.2.0 Build 709)  -->
  <g>
    <g id="layer_1">
      <g>
        <path class="cls-1" d="M28.5,26.9c2,1.4,2,3.7,1.2,5.3-.5.9-1.3,1.8-2.5,2.1s-1.6.3-2.6,0c0,0,0,0,0,0-2.6-1.3-5.2-2-8-2.3-.6,1-1.6,1.8-2.9,2.2-2.8.9-5.7-.7-6.5-3.4s-.3-2.1,0-3.1c-.8-.8-1.5-1.8-1.9-2.9-1.1-3.5.9-7.2,4.3-8.3s2.3-.4,3.4-.1c.6-.8,1.5-1.4,2.5-1.7,2.8-.9,5.7.7,6.5,3.4s.3,2.5-.2,3.6c2.2,2.6,4.7,4.4,6.4,5.3,0,0,0,0,0,0ZM28.4,31.6c.5-1.1.5-2.6-.7-3.5-1.7-.9-4.2-2.7-6.4-5.2,0,0-.1.1-.2.2l2.3,3.5c.2.3.1.6,0,.8,0,.1-.2.2-.3.2s-.3,0-.5,0l-4.8-2.1c-.1.3-.3.5-.4.8l4.5,2.8c.3.2.4.5.3.8,0,.2-.2.4-.5.5s-.1,0-.2,0h-4.2c0,.2,0,.3,0,.3,2.8.3,5.4,1,7.9,2.3,1.6.5,2.8-.4,3.3-1.4ZM20.8,18.4c-.6-2-2.8-3.1-4.8-2.5s-1.1.5-1.5.9c1.6.8,2.9,2.2,3.4,4s0,.2,0,.3c.3-.2.5-.4.7-.7s.6-.5.9-.3c.3.2.5.6.3.9-.4.7-1,1.2-1.7,1.5,0,.2,0,.5,0,.7h.1c2-.7,3.1-2.8,2.5-4.8ZM20.9,25.4l-.9-1.4c-.3.2-.7.4-1.1.5l2,.9ZM19,28.9l-1.8-1.1c.1.4.2.8.2,1.2h1.7ZM16.6,21.2c-.9-2.7-3.8-4.3-6.5-3.4s-4.3,3.8-3.4,6.5,3.8,4.3,6.5,3.4,4.3-3.8,3.4-6.5ZM15.8,28s0,0,0-.1c-.6.5-1.4.9-2.2,1.2s-2.1.4-3.2.2c0,.1,0,.3,0,.4.1.4.4.8.9,1,.8.4,1.9,0,2.4-.7.2-.3.6-.5.9-.3s.5.6.3.9c-.4.7-1,1.3-1.8,1.5s-1.6.2-2.4-.2c-.7-.4-1.3-1-1.5-1.8s-.2-.8-.1-1.2c-.2,0-.4-.2-.7-.3,0,.6,0,1.2.1,1.8.6,2,2.8,3.1,4.8,2.5s3.1-2.8,2.5-4.8ZM23.5,29.9c-.3-.2-.8,0-.9.3-.2.3,0,.8.3.9,1.8,1,3,1.5,3.8,1.2s.6-.5.5-.9-.5-.6-.9-.5c-.2,0-.9-.1-2.8-1.1ZM18.7,18.7c.1.4.5.6.9.5s.6-.5.5-.9-.5-.6-.9-.5-.6.5-.5.9ZM16.8,17.2c.1.4.5.6.9.5s.6-.5.5-.9-.5-.6-.9-.5-.6.5-.5.9ZM14.9,22.9c.1.4.5.6.9.5s.6-.5.5-.9-.5-.6-.9-.5-.6.5-.5.9ZM14.4,24.2c-.4.7-1,1.3-1.8,1.5s-1.6.2-2.4-.2c-.7-.4-1.3-1-1.5-1.8s-.2-1.6.2-2.4c.2-.3,0-.8-.3-.9-.3-.2-.8,0-.9.3-.6,1.1-.7,2.3-.3,3.4s1.2,2.1,2.2,2.7c1.1.6,2.3.7,3.4.3s2.1-1.1,2.7-2.2,0-.8-.3-.9c-.3-.2-.8,0-.9.3ZM13.4,20.4c.1.4.5.6.9.5s.6-.5.5-.9-.5-.6-.9-.5-.6.5-.5.9ZM12.1,23c.1.4.5.6.9.5s.6-.5.5-.9-.5-.6-.9-.5-.6.5-.5.9ZM10.3,19.9c.1.4.5.6.9.5s.6-.5.5-.9-.5-.6-.9-.5-.6.5-.5.9ZM9.6,22.3c.1.4.5.6.9.5s.6-.5.5-.9-.5-.6-.9-.5-.6.5-.5.9Z"/>
        <path class="cls-1" d="M13.2,13.8c-.1,0-.2,0-.4,0-.4,0-.6-.4-.4-.7l.8-1.8c.4-.9.2-1.9-.6-2.5-1-.9-1.4-2.2-.9-3.5l.5-1.3c.1-.3.5-.5.9-.5.4,0,.6.4.5.7l-.5,1.3c-.3.9-.1,1.8.6,2.4,1.1.9,1.4,2.3.8,3.6l-.8,1.8c0,.2-.3.4-.6.4Z"/>
        <path class="cls-1" d="M17.5,13.6c-.1,0-.2,0-.4,0-.4,0-.6-.4-.4-.7l.8-1.8c.4-.9.2-1.9-.6-2.5-1-.9-1.4-2.2-.9-3.5l.5-1.3c.1-.3.5-.5.9-.5.4,0,.6.4.5.7l-.5,1.3c-.3.9-.1,1.8.6,2.4,1.1.9,1.4,2.3.8,3.6l-.8,1.8c0,.2-.3.4-.6.4Z"/>
        <path class="cls-1" d="M21.9,13.4c-.1,0-.2,0-.4,0-.4,0-.6-.4-.4-.7l.8-1.8c.4-.9.2-1.9-.6-2.5-1-.9-1.4-2.2-.9-3.5l.5-1.3c.1-.3.5-.5.9-.5.4,0,.6.4.5.7l-.5,1.3c-.3.9-.1,1.8.6,2.4,1.1.9,1.4,2.3.8,3.6l-.8,1.8c0,.2-.3.4-.6.4Z"/>
      </g>
    </g>
  </g>
</svg>