<?xml version="1.0" encoding="UTF-8"?>
<svg xmlns="http://www.w3.org/2000/svg" version="1.1" viewBox="0 0 36 36">
  <defs>
    <style>
      .cls-1 {
        fill: #3d6666;
      }
    </style>
  </defs>
  <!-- Generator: Adobe Illustrator 28.6.0, SVG Export Plug-In . SVG Version: 1.2.0 Build 709)  -->
  <g>
    <g id="layer_1">
      <g>
        <path class="cls-1" d="M11.6,33.2c-1.7,0-2.4-.5-2.9-2.1l-.5-1.6c-.4-1.1-.7-2.2-1.1-3.4-.1-.4-.2-.5-.5-.6-.7-.1-1.1-.7-1.1-1.4,0-.8.4-1.3,1.1-1.5.3,0,.4-.2.5-.5.6-1.8,1.1-3.6,1.7-5.3.4-1.3,1.2-1.9,2.5-1.9,2.3,0,4.5,0,6.8,0s4.4,0,6.5,0c1.4,0,2.1.6,2.6,1.9.6,1.8,1.1,3.5,1.7,5.3.1.3.2.5.5.5.7.1,1.1.7,1.1,1.5,0,.8-.4,1.3-1.1,1.4-.3,0-.3.2-.4.5-.6,1.8-1.1,3.6-1.7,5.3-.4,1.3-1.2,1.9-2.6,1.9-.9,0-1.8,0-2.7,0h-10.3ZM8.8,26.9c.4,1.4.9,2.7,1.3,4.1.2.7.5.9,1.2.9h6.7s6.7,0,6.7,0c.8,0,1-.2,1.2-.9.5-1.7,1.1-3.4,1.6-5.1,0,0,0-.2,0-.2H8.4l.4,1.3ZM28.8,24.2c0,0,0,0,.1,0,0,0,.2-.1.2-.2,0,0,0,0,0,0,0,0-.1,0-.2-.1,0,0,0,0-.1,0,0,0-.3,0-.3,0H7.5s-.3,0-.3,0c0,0-.1,0-.2,0,0,0-.1.1-.1.1,0,0,0,.1.1.1,0,0,.1,0,.2,0h.3s20.9,0,20.9,0h.3ZM10.8,22.5c.7,0,1.2,0,1.7,0,.2,0,.3,0,.5,0,1.1,0,1.6-.4,1.8-1.5,0-.4.6-.7,1-.7.2,0,.4,0,.6,0s.5,0,.7,0c.2,0,.5,0,.7,0,.3,0,.7,0,1,0,.2,0,.4,0,.6,0,1.3,0,2,.6,2.2,1.9,0,.2.1.3.5.3.8,0,1.6,0,2.4,0h2.7c.1,0,.2,0,.3,0,0,0,0,0,0-.1l-.6-1.9c-.4-1.1-.7-2.2-1.1-3.3-.2-.6-.5-.8-1.2-.8h-13.4c-.7,0-1,.2-1.2.9-.4,1.2-.8,2.3-1.1,3.5-.2.5-.6,1.9-.6,1.9.4,0,.7,0,1,0,.5,0,.9,0,1.3,0ZM20.3,22.5c-.2-.7-.3-.7-1.1-.7h-2.4c-.8,0-.9,0-1,.7h4.6Z"/>
        <path class="cls-1" d="M15.1,31.1c0,0-.1,0-.2,0,0,0,0,0-.1-.1-.2-.1-.3-.3-.3-.5,0-1,0-1.9,0-2.9,0-.2.2-.4.3-.5,0,0,0,0,.1-.1,0,0,.1,0,.2,0h0c0,0,.1,0,.2,0,0,0,0,0,.1.1.1.1.3.3.3.5,0,.4,0,.7,0,1v.4s0,.4,0,.4c0,.3,0,.7,0,1,0,.2-.2.4-.3.5,0,0,0,0-.1.1,0,0-.1,0-.2,0h0Z"/>
        <path class="cls-1" d="M18,31.1c0,0-.1,0-.2,0,0,0,0,0-.1-.1-.1-.1-.3-.3-.3-.5,0-1,0-1.9,0-2.8,0-.2.2-.4.3-.5,0,0,0,0,.1-.1,0,0,.1,0,.2,0h0c0,0,.1,0,.2,0,0,0,0,0,.1.1.1.1.3.3.3.5,0,.4,0,.7,0,1.1v.4s0,.4,0,.4c0,.3,0,.7,0,1,0,.2-.2.4-.3.5,0,0,0,0-.1.1,0,0-.1,0-.2,0h0Z"/>
        <path class="cls-1" d="M20.9,31.1c0,0-.1,0-.2-.1,0,0,0,0-.1-.1-.1-.1-.3-.3-.3-.5,0-.3,0-.7,0-1v-.4s0-.4,0-.4c0-.3,0-.7,0-1,0-.2.2-.4.3-.5,0,0,0,0,.1-.1,0,0,.1,0,.2,0h0c0,0,.1,0,.2,0,0,0,0,0,.1.1.2.1.3.3.4.5,0,.9,0,1.9,0,2.8,0,.2-.2.4-.4.5,0,0-.1,0-.1.1,0,0-.1,0-.2,0s0,0,0,0Z"/>
        <path class="cls-1" d="M12.1,31.1c0,0-.2,0-.2-.1,0,0,0,0-.1-.1-.1-.1-.3-.3-.3-.5,0-.3,0-.7,0-1,0-.1,0-.3,0-.4s0-.2,0-.4c0-.3,0-.6,0-.9,0-.2.2-.4.3-.5,0,0,0-.1.1-.2,0,0,.1-.1.2-.1h0c0,0,.2,0,.2.1,0,0,0,0,.1.1.1.1.3.3.3.5,0,.9,0,1.9,0,2.8,0,.2-.2.4-.3.5,0,0,0,0-.1.1,0,0-.1,0-.2,0h0Z"/>
        <path class="cls-1" d="M23.9,31.1c0,0-.1,0-.2,0,0,0,0,0-.1-.1-.1-.1-.3-.3-.3-.5,0-.9,0-1.9,0-2.8,0-.2.2-.4.3-.5,0,0,0,0,.1-.1,0,0,.1,0,.2-.1,0,0,0,0,0,0,0,0,.1,0,.2,0,0,0,0,0,.1.1.2.1.3.3.4.5,0,.4,0,.7,0,1v.4s0,.4,0,.4c0,.3,0,.7,0,1,0,.2-.2.4-.4.5,0,0,0,0-.1.1,0,0-.1,0-.2,0h0Z"/>
      </g>
      <path class="cls-1" d="M20.6,10.1c0-1,0-2.1,0-3.3h0c-.3,1-.6,2.2-.9,3.1l-1,3.2h-1.4l-.9-3.1c-.3-.9-.5-2.1-.7-3.2h0c0,1.1,0,2.3-.1,3.3v3.1h-1.8l.5-8.1h2.4l.8,2.7c.3.9.5,1.9.7,2.9h0c.2-.9.5-2,.8-2.9l.9-2.7h2.4l.4,8.1h-1.8v-3.1Z"/>
    </g>
  </g>
</svg>