<?xml version="1.0" encoding="UTF-8"?>
<svg xmlns="http://www.w3.org/2000/svg" version="1.1" viewBox="0 0 36 36">
  <defs>
    <style>
      .cls-1 {
        fill: #3d6666;
      }
    </style>
  </defs>
  <!-- Generator: Adobe Illustrator 28.6.0, SVG Export Plug-In . SVG Version: 1.2.0 Build 709)  -->
  <g>
    <g id="layer_1">
      <path class="cls-1" d="M29.3,18.3c2.2,2.2,2.2,5.9,0,8.1-3.1,3.1-6.6,4.6-10.1,4.6s-7-1.5-10.1-4.6c-1.7-1.7-2.1-4.2-1.2-6.2-1.9-2.4-2.9-5.6-2.9-9.4s2.6-5.8,5.8-5.8,2,.3,2.9.8c.9.5,1.6,1.2,2.1,2.1,0,0,.2.3.2.5.1.2.2.5.3.8.9,3.2,3.9,4.4,5.7,5.2h.3c0,.1,0,.2,0,.2.9.5,1.7,1.3,2.2,2.2,1.7-.2,3.5.4,4.8,1.6ZM28.2,25.2c1.6-1.6,1.6-4.2,0-5.8-1-1-2.5-1.4-3.9-1.1h-.2c-.1.2-.3.2-.5.3.3,1.2,0,2.3-.9,3.1-.8.8-2,1.2-3.1,1.2s-1.4-.1-2-.4c-1.3-.7-2-1.9-2-3.6-.1,0-.3-.1-.4-.2-.2,0-.4-.2-.6-.3-.1,0-.3,0-.3,0-.4,0-.7-.1-1.1-.1-1.1,0-2.1.4-2.9,1.2-1.6,1.6-1.6,4.2,0,5.8,5.5,5.5,12.4,5.5,17.9,0ZM21.5,20.6c.4-.4.6-.8.5-1.4-1.4.4-3.1.7-4.8.3.1.7.5,1.2,1,1.5,1,.5,2.5.3,3.3-.5ZM22.9,17.2c-.3-.5-.8-.9-1.3-1.3h-.2c-.2-.2-.5-.3-.8-.4-.6,1.1-1.5,1.7-2.7,1.7h0c-1.9,0-3.9-1.4-4.4-3.2-.5-1.5,0-3,1.5-4.1,0,0,0-.2,0-.2,0-.2-.1-.4-.2-.6,0-.1-.1-.3-.1-.3-.7-1.3-2.1-2.1-3.6-2.1-2.3,0-4.2,1.9-4.2,4.2s.8,5.8,2.2,7.9c.1-.1.2-.2.3-.3s.2-.2.3-.2c-1.3-1.9-2-4.4-2-7.3s.4-.8.8-.8.8.4.8.8c0,2.6.6,4.7,1.7,6.4.8-.4,1.6-.5,2.5-.5s1,0,1.5.2c0,0,.3,0,.5.2.2,0,.5.2.8.3,2.6,1.4,5.2.6,7-.2ZM17.8,15.6c.6,0,1-.3,1.3-.8-1.3-.7-2.7-1.8-3.6-3.4-.5.5-.9,1.2-.6,2,.4,1.1,1.7,2.1,2.9,2.1ZM26.5,20c-.3.3-.3.8,0,1.1.3.3.5.7.5,1.2s-.2.9-.5,1.2c-4.6,4.6-9.9,4.6-14.5,0-.3-.3-.8-.3-1.1,0-.3.3-.3.8,0,1.1,2.6,2.6,5.5,3.9,8.4,3.9s5.8-1.3,8.4-3.9c.6-.6,1-1.5,1-2.3s-.3-1.7-1-2.3c-.3-.3-.8-.3-1.2,0Z"/>
    </g>
  </g>
</svg>